<svg width="287" height="69" viewBox="0 0 287 69" fill="none" xmlns="http://www.w3.org/2000/svg">
<rect width="69" height="69" rx="11" fill="#1D9E75"/>
<rect x="12" y="32" width="10" height="24" rx="2" fill="#8ECFBA"/>
<rect x="29" y="22" width="10" height="34" rx="2" fill="#C6E7DC"/>
<rect x="46" y="13" width="10" height="43" rx="2" fill="white"/>
<path d="M82.5938 35C81.8646 35 81.5 34.6094 81.5 33.8281V13.7656C81.5 12.9844 81.8646 12.5938 82.5938 12.5938H88.4375C92.1875 12.5938 94.7865 13.2031 96.2344 14.4219C97.6927 15.6406 98.4219 17.3698 98.4219 19.6094C98.4219 21.849 97.6927 23.5781 96.2344 24.7969C94.7865 26.0156 92.1875 26.625 88.4375 26.625H86.0625V33.8281C86.0625 34.6094 85.6979 35 84.9688 35H82.5938ZM86.0625 22.8125H88.4219C90.5052 22.8125 91.9219 22.5677 92.6719 22.0781C93.4219 21.5781 93.7969 20.7552 93.7969 19.6094C93.7969 18.4635 93.4219 17.6458 92.6719 17.1562C91.9219 16.6562 90.5052 16.4062 88.4219 16.4062H86.0625V22.8125ZM101.844 28.1875V19.5312C101.844 18.9062 102.156 18.5938 102.781 18.5938H105.281C105.906 18.5938 106.219 18.9062 106.219 19.5312V27.0625C106.219 29.3333 106.375 30.7656 106.688 31.3594C107 31.9531 107.656 32.25 108.656 32.25C109.719 32.25 110.526 31.8281 111.078 30.9844C111.63 30.1302 111.906 28.3646 111.906 25.6875V19.5312C111.906 18.9062 112.219 18.5938 112.844 18.5938H115.344C115.969 18.5938 116.281 18.9062 116.281 19.5312V34.0625C116.281 34.6875 115.969 35 115.344 35H112.875C112.25 35 111.938 34.6875 111.938 34.0625V33.1562H111.875C111.396 33.9792 110.786 34.5469 110.047 34.8594C109.307 35.1615 108.432 35.3125 107.422 35.3125C105.828 35.3125 104.5 34.8021 103.438 33.7812C102.375 32.7604 101.844 30.8958 101.844 28.1875ZM121.469 35C120.844 35 120.531 34.6875 120.531 34.0625V19.5312C120.531 18.9062 120.844 18.5938 121.469 18.5938H123.938C124.562 18.5938 124.875 18.9062 124.875 19.5312V20.8125H124.938C125.208 20.1458 125.661 19.5573 126.297 19.0469C126.932 18.5365 127.682 18.2812 128.547 18.2812C129.141 18.2812 129.63 18.3542 130.016 18.5C130.38 18.6354 130.521 18.8854 130.438 19.25L130 21.1094C129.906 21.526 129.625 21.651 129.156 21.4844C128.885 21.3906 128.625 21.3438 128.375 21.3438C127.375 21.3438 126.547 21.9427 125.891 23.1406C125.234 24.3385 124.906 26.0833 124.906 28.375V34.0625C124.906 34.6875 124.594 35 123.969 35H121.469ZM131.938 26.7969C131.938 24.1615 132.594 22.0833 133.906 20.5625C135.229 19.0417 137.094 18.2812 139.5 18.2812C142.292 18.2812 144.365 19 145.719 20.4375C147.073 21.875 147.75 24.1875 147.75 27.375C147.75 28 147.458 28.3125 146.875 28.3125H136.562C136.729 30.0417 137.156 31.1302 137.844 31.5781C138.531 32.026 139.328 32.25 140.234 32.25C141.099 32.25 141.76 32.1354 142.219 31.9062C142.677 31.6771 143.062 31.3646 143.375 30.9688C143.729 30.5104 144.167 30.4375 144.688 30.75L146.25 31.7031C146.865 32.0781 146.953 32.526 146.516 33.0469C145.88 33.8073 145.135 34.375 144.281 34.75C143.427 35.125 142.078 35.3125 140.234 35.3125C137.245 35.3125 135.115 34.5521 133.844 33.0312C132.573 31.5104 131.938 29.4323 131.938 26.7969ZM136.578 25.1875H143.375C143.375 24.0625 143.094 23.1458 142.531 22.4375C141.969 21.7188 141.073 21.3594 139.844 21.3594C138.865 21.3594 138.089 21.7031 137.516 22.3906C136.943 23.0677 136.63 24 136.578 25.1875ZM150.734 16.5938C149.953 16.5938 149.562 16.2552 149.562 15.5781V13.6094C149.562 12.9323 149.953 12.5938 150.734 12.5938H166.797C167.578 12.5938 167.969 12.9323 167.969 13.6094V15.5781C167.969 16.2552 167.578 16.5938 166.797 16.5938H161.047V34.1406C161.047 34.7135 160.786 35 160.266 35H157.266C156.745 35 156.484 34.7135 156.484 34.1406V16.5938H150.734ZM165.656 26.7969C165.656 24.1406 166.339 22.0573 167.703 20.5469C169.078 19.0365 171.12 18.2812 173.828 18.2812C176.536 18.2812 178.573 19.0365 179.938 20.5469C181.312 22.0573 182 24.1406 182 26.7969C182 29.4531 181.312 31.5365 179.938 33.0469C178.573 34.5573 176.536 35.3125 173.828 35.3125C171.12 35.3125 169.078 34.5573 167.703 33.0469C166.339 31.5365 165.656 29.4531 165.656 26.7969ZM170.281 26.7969C170.281 28.776 170.583 30.1823 171.188 31.0156C171.802 31.8385 172.682 32.25 173.828 32.25C174.974 32.25 175.849 31.8385 176.453 31.0156C177.068 30.1823 177.375 28.776 177.375 26.7969C177.375 24.8177 177.068 23.4167 176.453 22.5938C175.849 21.7604 174.974 21.3438 173.828 21.3438C172.682 21.3438 171.802 21.7604 171.188 22.5938C170.583 23.4167 170.281 24.8177 170.281 26.7969ZM184.5 26.7969C184.5 24.1406 185.182 22.0573 186.547 20.5469C187.922 19.0365 189.964 18.2812 192.672 18.2812C195.38 18.2812 197.417 19.0365 198.781 20.5469C200.156 22.0573 200.844 24.1406 200.844 26.7969C200.844 29.4531 200.156 31.5365 198.781 33.0469C197.417 34.5573 195.38 35.3125 192.672 35.3125C189.964 35.3125 187.922 34.5573 186.547 33.0469C185.182 31.5365 184.5 29.4531 184.5 26.7969ZM189.125 26.7969C189.125 28.776 189.427 30.1823 190.031 31.0156C190.646 31.8385 191.526 32.25 192.672 32.25C193.818 32.25 194.693 31.8385 195.297 31.0156C195.911 30.1823 196.219 28.776 196.219 26.7969C196.219 24.8177 195.911 23.4167 195.297 22.5938C194.693 21.7604 193.818 21.3438 192.672 21.3438C191.526 21.3438 190.646 21.7604 190.031 22.5938C189.427 23.4167 189.125 24.8177 189.125 26.7969ZM205.156 35C204.531 35 204.219 34.6875 204.219 34.0625V15.6094C204.219 15.1406 204.328 14.7135 204.547 14.3281L205.75 12.2188C205.979 11.8229 206.25 11.625 206.562 11.625H207.656C208.281 11.625 208.594 11.9375 208.594 12.5625V34.0625C208.594 34.6875 208.281 35 207.656 35H205.156ZM212.516 33.9062C212.005 33.5417 211.865 33.151 212.094 32.7344L212.891 31.2812C213.172 30.7604 213.609 30.6979 214.203 31.0938C214.797 31.4896 215.495 31.7812 216.297 31.9688C217.109 32.1562 217.849 32.25 218.516 32.25C218.984 32.25 219.422 32.2031 219.828 32.1094C220.234 32.0156 220.578 31.8333 220.859 31.5625C221.141 31.2917 221.281 30.8958 221.281 30.375C221.281 30.0625 221.198 29.7969 221.031 29.5781C220.865 29.3594 220.651 29.1927 220.391 29.0781C220.13 28.9635 219.854 28.8698 219.562 28.7969C219.177 28.7031 218.62 28.5469 217.891 28.3281C217.172 28.1094 216.479 27.8542 215.812 27.5625C215.26 27.3229 214.719 26.9896 214.188 26.5625C213.667 26.125 213.281 25.6406 213.031 25.1094C212.792 24.5781 212.672 23.9219 212.672 23.1406C212.672 22.0885 212.974 21.1667 213.578 20.375C214.193 19.5833 214.984 19.0365 215.953 18.7344C216.922 18.4323 218.13 18.2812 219.578 18.2812C220.557 18.2812 221.51 18.4219 222.438 18.7031C223.365 18.9844 224.026 19.25 224.422 19.5C225.047 19.8958 225.203 20.3177 224.891 20.7656L223.938 22.1562C223.646 22.5729 223.177 22.6042 222.531 22.25C222.042 21.9792 221.557 21.7604 221.078 21.5938C220.609 21.4271 220.083 21.3438 219.5 21.3438C219.104 21.3438 218.724 21.3854 218.359 21.4688C217.995 21.5521 217.682 21.7083 217.422 21.9375C217.172 22.1667 217.047 22.4688 217.047 22.8438C217.047 23.2396 217.161 23.5521 217.391 23.7812C217.63 24 217.901 24.1615 218.203 24.2656C218.516 24.3698 218.812 24.4688 219.094 24.5625C219.677 24.75 220.266 24.9323 220.859 25.1094C221.453 25.276 222.057 25.4792 222.672 25.7188C223.203 25.9271 223.719 26.224 224.219 26.6094C224.719 26.9948 225.083 27.4844 225.312 28.0781C225.542 28.6719 225.656 29.349 225.656 30.1094C225.656 31.1198 225.354 32.0573 224.75 32.9219C224.146 33.7865 223.349 34.401 222.359 34.7656C221.37 35.1302 220.219 35.3125 218.906 35.3125C217.438 35.3125 216.188 35.2083 215.156 35C214.125 34.7917 213.245 34.4271 212.516 33.9062Z" fill="white"/>
<path d="M230.031 35C229.302 35 228.938 34.6094 228.938 33.8281V13.7656C228.938 12.9844 229.302 12.5938 230.031 12.5938H232.406C233.135 12.5938 233.5 12.9844 233.5 13.7656V21.4062H241.906V13.7656C241.906 12.9844 242.271 12.5938 243 12.5938H245.375C246.104 12.5938 246.469 12.9844 246.469 13.7656V33.8281C246.469 34.6094 246.104 35 245.375 35H243C242.271 35 241.906 34.6094 241.906 33.8281V25.2812H233.5V33.8281C233.5 34.6094 233.135 35 232.406 35H230.031ZM251.062 28.1875V19.5312C251.062 18.9062 251.375 18.5938 252 18.5938H254.5C255.125 18.5938 255.438 18.9062 255.438 19.5312V27.0625C255.438 29.3333 255.594 30.7656 255.906 31.3594C256.219 31.9531 256.875 32.25 257.875 32.25C258.938 32.25 259.745 31.8281 260.297 30.9844C260.849 30.1302 261.125 28.3646 261.125 25.6875V19.5312C261.125 18.9062 261.438 18.5938 262.062 18.5938H264.562C265.188 18.5938 265.5 18.9062 265.5 19.5312V34.0625C265.5 34.6875 265.188 35 264.562 35H262.094C261.469 35 261.156 34.6875 261.156 34.0625V33.1562H261.094C260.615 33.9792 260.005 34.5469 259.266 34.8594C258.526 35.1615 257.651 35.3125 256.641 35.3125C255.047 35.3125 253.719 34.8021 252.656 33.7812C251.594 32.7604 251.062 30.8958 251.062 28.1875ZM270.688 35C270.062 35 269.75 34.6875 269.75 34.0625V12.875C269.75 12.25 270.062 11.9375 270.688 11.9375H273.188C273.812 11.9375 274.125 12.25 274.125 12.875V19.1875C274.125 19.6042 274.104 20.0208 274.062 20.4375H274.125C274.667 19.5417 275.271 18.9583 275.938 18.6875C276.604 18.4167 277.406 18.2812 278.344 18.2812C280.792 18.2812 282.51 19.1302 283.5 20.8281C284.5 22.5156 285 24.5052 285 26.7969C285 29.0885 284.5 31.0833 283.5 32.7812C282.51 34.4688 280.792 35.3125 278.344 35.3125C277.406 35.3125 276.604 35.1771 275.938 34.9062C275.271 34.6354 274.667 34.0521 274.125 33.1562H274.062L274 34.0625C273.958 34.6875 273.677 35 273.156 35H270.688ZM274.125 27.5C274.125 28.9062 274.401 30.0521 274.953 30.9375C275.516 31.8125 276.188 32.25 276.969 32.25C278.375 32.25 279.292 31.7604 279.719 30.7812C280.156 29.7917 280.375 28.4635 280.375 26.7969C280.375 25.1302 280.156 23.8073 279.719 22.8281C279.292 21.8385 278.375 21.3438 276.969 21.3438C276.188 21.3438 275.516 21.7865 274.953 22.6719C274.401 23.5469 274.125 24.6875 274.125 26.0938V27.5Z" fill="#1D9E75"/>
<path d="M83.2891 59C83.0938 59 82.9961 58.8926 82.9961 58.6777V50.9199C82.9961 50.7051 83.0938 50.5977 83.2891 50.5977H88.0645C88.2793 50.5977 88.3867 50.6855 88.3867 50.8613V51.2949C88.3867 51.4707 88.2793 51.5586 88.0645 51.5586H84.1211V54.3359H87.5605C87.7754 54.3359 87.8828 54.4238 87.8828 54.5996V55.0332C87.8828 55.209 87.7754 55.2969 87.5605 55.2969H84.1211V58.6777C84.1211 58.8926 84.0234 59 83.8281 59H83.2891ZM90.6011 59C90.4058 59 90.3081 58.8926 90.3081 58.6777V50.9199C90.3081 50.7051 90.4058 50.5977 90.6011 50.5977H93.4312C94.5601 50.5977 95.3765 50.8086 95.8804 51.2305C96.3882 51.6523 96.6421 52.209 96.6421 52.9004C96.6421 53.5098 96.437 54.0215 96.0269 54.4355C95.6206 54.8496 95.0405 55.0879 94.2866 55.1504V55.1621C94.6851 55.459 94.9488 55.6855 95.0777 55.8418C95.2066 55.9941 95.3511 56.2012 95.5113 56.4629L96.8355 58.6133C96.9956 58.8711 96.9605 59 96.73 59H96.062C95.8784 59 95.7417 58.9238 95.6519 58.7715L94.4331 56.6797C94.2573 56.3789 94.0054 56.084 93.6773 55.7949C93.3491 55.5059 92.9409 55.3613 92.4527 55.3613H91.4331V58.6777C91.4331 58.8926 91.3355 59 91.1402 59H90.6011ZM91.4331 54.4004H93.1265C93.8882 54.4004 94.4741 54.3008 94.8843 54.1016C95.2945 53.8984 95.4995 53.4746 95.4995 52.8301C95.4995 52.3379 95.312 52.0039 94.937 51.8281C94.562 51.6484 94.0523 51.5586 93.4077 51.5586H91.4331V54.4004ZM99.2491 59C99.0538 59 98.9561 58.8926 98.9561 58.6777V50.9199C98.9561 50.7051 99.0538 50.5977 99.2491 50.5977H104.376C104.591 50.5977 104.698 50.6855 104.698 50.8613V51.2949C104.698 51.4707 104.591 51.5586 104.376 51.5586H100.081V54.1602H104.024C104.239 54.1602 104.347 54.248 104.347 54.4238V54.8574C104.347 55.0332 104.239 55.1211 104.024 55.1211H100.081V58.0391H104.552C104.767 58.0391 104.874 58.127 104.874 58.3027V58.7363C104.874 58.9121 104.767 59 104.552 59H99.2491ZM107.17 59C106.975 59 106.878 58.8926 106.878 58.6777V50.9199C106.878 50.7051 106.975 50.5977 107.17 50.5977H112.297C112.512 50.5977 112.62 50.6855 112.62 50.8613V51.2949C112.62 51.4707 112.512 51.5586 112.297 51.5586H108.003V54.1602H111.946C112.161 54.1602 112.268 54.248 112.268 54.4238V54.8574C112.268 55.0332 112.161 55.1211 111.946 55.1211H108.003V58.0391H112.473C112.688 58.0391 112.795 58.127 112.795 58.3027V58.7363C112.795 58.9121 112.688 59 112.473 59H107.17ZM118.812 51.6055C118.597 51.6055 118.49 51.5176 118.49 51.3418V50.8613C118.49 50.6855 118.597 50.5977 118.812 50.5977H125.011C125.226 50.5977 125.334 50.6855 125.334 50.8613V51.3418C125.334 51.5176 125.226 51.6055 125.011 51.6055H122.474V58.6777C122.474 58.8926 122.377 59 122.181 59H121.642C121.447 59 121.349 58.8926 121.349 58.6777V51.6055H118.812ZM126.564 54.7988C126.564 53.4316 126.9 52.3613 127.571 51.5879C128.247 50.8105 129.22 50.4219 130.489 50.4219C131.759 50.4219 132.73 50.8105 133.401 51.5879C134.077 52.3613 134.415 53.4316 134.415 54.7988C134.415 56.166 134.077 57.2383 133.401 58.0156C132.73 58.7891 131.759 59.1758 130.489 59.1758C129.22 59.1758 128.247 58.7891 127.571 58.0156C126.9 57.2383 126.564 56.166 126.564 54.7988ZM127.765 54.7988C127.765 55.8926 127.989 56.7441 128.439 57.3535C128.888 57.959 129.571 58.2617 130.489 58.2617C131.407 58.2617 132.091 57.959 132.54 57.3535C132.989 56.7441 133.214 55.8926 133.214 54.7988C133.214 53.7051 132.989 52.8555 132.54 52.25C132.091 51.6406 131.407 51.3359 130.489 51.3359C129.571 51.3359 128.888 51.6406 128.439 52.25C127.989 52.8555 127.765 53.7051 127.765 54.7988ZM135.973 54.7988C135.973 53.4316 136.309 52.3613 136.981 51.5879C137.657 50.8105 138.63 50.4219 139.899 50.4219C141.169 50.4219 142.139 50.8105 142.811 51.5879C143.487 52.3613 143.825 53.4316 143.825 54.7988C143.825 56.166 143.487 57.2383 142.811 58.0156C142.139 58.7891 141.169 59.1758 139.899 59.1758C138.63 59.1758 137.657 58.7891 136.981 58.0156C136.309 57.2383 135.973 56.166 135.973 54.7988ZM137.174 54.7988C137.174 55.8926 137.399 56.7441 137.848 57.3535C138.298 57.959 138.981 58.2617 139.899 58.2617C140.817 58.2617 141.501 57.959 141.95 57.3535C142.399 56.7441 142.624 55.8926 142.624 54.7988C142.624 53.7051 142.399 52.8555 141.95 52.25C141.501 51.6406 140.817 51.3359 139.899 51.3359C138.981 51.3359 138.298 51.6406 137.848 52.25C137.399 52.8555 137.174 53.7051 137.174 54.7988ZM146.133 59C145.938 59 145.84 58.8926 145.84 58.6777V50.9199C145.84 50.7051 145.938 50.5977 146.133 50.5977H146.672C146.867 50.5977 146.965 50.7051 146.965 50.9199V58.0391H150.85C151.065 58.0391 151.172 58.127 151.172 58.3027V58.7363C151.172 58.9121 151.065 59 150.85 59H146.133ZM152.953 58.3672C152.746 58.1797 152.691 58.0156 152.789 57.875L153.093 57.4355C153.199 57.2832 153.369 57.2949 153.603 57.4707C153.912 57.7012 154.232 57.8906 154.564 58.0391C154.9 58.1875 155.306 58.2617 155.783 58.2617C156.134 58.2617 156.431 58.209 156.674 58.1035C156.916 57.998 157.109 57.8477 157.254 57.6523C157.402 57.4531 157.476 57.2129 157.476 56.9316C157.476 56.7285 157.445 56.541 157.382 56.3691C157.324 56.1934 157.228 56.0469 157.095 55.9297C156.963 55.8125 156.824 55.7207 156.679 55.6543C156.441 55.5449 156.084 55.418 155.607 55.2734C155.134 55.1289 154.72 54.9727 154.365 54.8047C154.013 54.6367 153.732 54.4336 153.521 54.1953C153.314 53.957 153.175 53.7129 153.105 53.4629C153.039 53.209 153.006 52.9199 153.006 52.5957C153.006 52.0996 153.15 51.6719 153.439 51.3125C153.728 50.9531 154.082 50.7148 154.5 50.5977C154.922 50.4805 155.349 50.4219 155.783 50.4219C156.279 50.4219 156.711 50.4863 157.078 50.6152C157.445 50.7441 157.773 50.9121 158.062 51.1191C158.265 51.2637 158.312 51.416 158.203 51.5762L157.904 52.0039C157.814 52.1328 157.638 52.1055 157.377 51.9219C157.177 51.7812 156.933 51.6504 156.644 51.5293C156.359 51.4043 156.076 51.3418 155.795 51.3418C155.435 51.3418 155.136 51.3848 154.898 51.4707C154.66 51.5527 154.472 51.6934 154.336 51.8926C154.199 52.0918 154.131 52.3223 154.131 52.584C154.131 52.748 154.146 52.9004 154.177 53.041C154.209 53.1777 154.289 53.3184 154.418 53.4629C154.547 53.6074 154.703 53.7188 154.886 53.7969C155.132 53.9023 155.513 54.0273 156.029 54.1719C156.549 54.3125 157.002 54.4863 157.388 54.6934C157.748 54.8848 158.006 55.0859 158.162 55.2969C158.322 55.5039 158.445 55.7305 158.531 55.9766C158.621 56.2188 158.666 56.4922 158.666 56.7969C158.666 57.3516 158.523 57.8145 158.238 58.1855C157.953 58.5566 157.615 58.8145 157.224 58.959C156.834 59.1035 156.343 59.1758 155.754 59.1758C155.047 59.1758 154.461 59.0938 153.996 58.9297C153.531 58.7656 153.183 58.5781 152.953 58.3672ZM165.538 55.373C165.362 55.373 165.274 55.2852 165.274 55.1094V54.3945C165.274 54.2188 165.362 54.1309 165.538 54.1309H166.194C166.37 54.1309 166.458 54.2188 166.458 54.3945V55.1094C166.458 55.2852 166.37 55.373 166.194 55.373H165.538ZM173.869 59C173.674 59 173.576 58.8926 173.576 58.6777V50.9199C173.576 50.7051 173.674 50.5977 173.869 50.5977H174.408C174.603 50.5977 174.701 50.7051 174.701 50.9199V58.6777C174.701 58.8926 174.603 59 174.408 59H173.869ZM177.466 59C177.271 59 177.173 58.8926 177.173 58.6777V50.9199C177.173 50.7051 177.271 50.5977 177.466 50.5977H178.216C178.49 50.5977 178.685 50.6953 178.802 50.8906L182.47 57.0371H182.493C182.486 56.8809 182.482 56.7246 182.482 56.5684V50.9199C182.482 50.7051 182.579 50.5977 182.775 50.5977H183.314C183.509 50.5977 183.607 50.7051 183.607 50.9199V58.6777C183.607 58.8926 183.509 59 183.314 59H182.798C182.525 59 182.329 58.9023 182.212 58.707L178.31 52.1855H178.286C178.294 52.3418 178.298 52.498 178.298 52.6543V58.6777C178.298 58.8926 178.2 59 178.005 59H177.466ZM186.055 58.3672C185.848 58.1797 185.794 58.0156 185.891 57.875L186.196 57.4355C186.302 57.2832 186.471 57.2949 186.706 57.4707C187.014 57.7012 187.335 57.8906 187.667 58.0391C188.003 58.1875 188.409 58.2617 188.886 58.2617C189.237 58.2617 189.534 58.209 189.776 58.1035C190.018 57.998 190.212 57.8477 190.356 57.6523C190.505 57.4531 190.579 57.2129 190.579 56.9316C190.579 56.7285 190.548 56.541 190.485 56.3691C190.427 56.1934 190.331 56.0469 190.198 55.9297C190.065 55.8125 189.927 55.7207 189.782 55.6543C189.544 55.5449 189.186 55.418 188.71 55.2734C188.237 55.1289 187.823 54.9727 187.468 54.8047C187.116 54.6367 186.835 54.4336 186.624 54.1953C186.417 53.957 186.278 53.7129 186.208 53.4629C186.141 53.209 186.108 52.9199 186.108 52.5957C186.108 52.0996 186.253 51.6719 186.542 51.3125C186.831 50.9531 187.184 50.7148 187.602 50.5977C188.024 50.4805 188.452 50.4219 188.886 50.4219C189.382 50.4219 189.813 50.4863 190.18 50.6152C190.548 50.7441 190.876 50.9121 191.165 51.1191C191.368 51.2637 191.415 51.416 191.305 51.5762L191.007 52.0039C190.917 52.1328 190.741 52.1055 190.479 51.9219C190.28 51.7812 190.036 51.6504 189.747 51.5293C189.462 51.4043 189.179 51.3418 188.897 51.3418C188.538 51.3418 188.239 51.3848 188.001 51.4707C187.762 51.5527 187.575 51.6934 187.438 51.8926C187.302 52.0918 187.233 52.3223 187.233 52.584C187.233 52.748 187.249 52.9004 187.28 53.041C187.311 53.1777 187.391 53.3184 187.52 53.4629C187.649 53.6074 187.805 53.7188 187.989 53.7969C188.235 53.9023 188.616 54.0273 189.132 54.1719C189.651 54.3125 190.104 54.4863 190.491 54.6934C190.85 54.8848 191.108 55.0859 191.264 55.2969C191.425 55.5039 191.548 55.7305 191.634 55.9766C191.723 56.2188 191.768 56.4922 191.768 56.7969C191.768 57.3516 191.626 57.8145 191.341 58.1855C191.055 58.5566 190.718 58.8145 190.327 58.959C189.936 59.1035 189.446 59.1758 188.856 59.1758C188.149 59.1758 187.563 59.0938 187.098 58.9297C186.634 58.7656 186.286 58.5781 186.055 58.3672ZM193.268 51.6055C193.053 51.6055 192.946 51.5176 192.946 51.3418V50.8613C192.946 50.6855 193.053 50.5977 193.268 50.5977H199.467C199.682 50.5977 199.789 50.6855 199.789 50.8613V51.3418C199.789 51.5176 199.682 51.6055 199.467 51.6055H196.93V58.6777C196.93 58.8926 196.832 59 196.637 59H196.098C195.903 59 195.805 58.8926 195.805 58.6777V51.6055H193.268ZM199.976 59C199.773 59 199.721 58.8711 199.818 58.6133L202.736 50.9551C202.826 50.7168 202.955 50.5977 203.123 50.5977H203.943C204.111 50.5977 204.24 50.7168 204.33 50.9551L207.248 58.6133C207.346 58.8711 207.293 59 207.09 59H206.492C206.285 59 206.144 58.9043 206.07 58.7129L205.338 56.7734H201.728L200.996 58.7129C200.922 58.9043 200.781 59 200.574 59H199.976ZM202.097 55.8125H204.969L204.072 53.4688C203.99 53.25 203.908 53.0078 203.826 52.7422C203.748 52.4766 203.654 52.0996 203.545 51.6113H203.521C203.412 52.0996 203.316 52.4766 203.234 52.7422C203.156 53.0078 203.076 53.25 202.994 53.4688L202.097 55.8125ZM209.14 59C208.945 59 208.847 58.8926 208.847 58.6777V50.9199C208.847 50.7051 208.945 50.5977 209.14 50.5977H209.89C210.163 50.5977 210.359 50.6953 210.476 50.8906L214.144 57.0371H214.167C214.16 56.8809 214.156 56.7246 214.156 56.5684V50.9199C214.156 50.7051 214.253 50.5977 214.449 50.5977H214.988C215.183 50.5977 215.281 50.7051 215.281 50.9199V58.6777C215.281 58.8926 215.183 59 214.988 59H214.472C214.199 59 214.003 58.9023 213.886 58.707L209.984 52.1855H209.96C209.968 52.3418 209.972 52.498 209.972 52.6543V58.6777C209.972 58.8926 209.874 59 209.679 59H209.14ZM217.29 51.6055C217.075 51.6055 216.968 51.5176 216.968 51.3418V50.8613C216.968 50.6855 217.075 50.5977 217.29 50.5977H223.489C223.704 50.5977 223.811 50.6855 223.811 50.8613V51.3418C223.811 51.5176 223.704 51.6055 223.489 51.6055H220.952V58.6777C220.952 58.8926 220.854 59 220.659 59H220.12C219.925 59 219.827 58.8926 219.827 58.6777V51.6055H217.29ZM230.268 59C230.072 59 229.975 58.8926 229.975 58.6777V50.9199C229.975 50.7051 230.072 50.5977 230.268 50.5977H233.098C234.226 50.5977 235.043 50.8086 235.547 51.2305C236.055 51.6523 236.309 52.209 236.309 52.9004C236.309 53.5098 236.103 54.0215 235.693 54.4355C235.287 54.8496 234.707 55.0879 233.953 55.1504V55.1621C234.351 55.459 234.615 55.6855 234.744 55.8418C234.873 55.9941 235.018 56.2012 235.178 56.4629L236.502 58.6133C236.662 58.8711 236.627 59 236.396 59H235.728C235.545 59 235.408 58.9238 235.318 58.7715L234.1 56.6797C233.924 56.3789 233.672 56.084 233.344 55.7949C233.016 55.5059 232.607 55.3613 232.119 55.3613H231.1V58.6777C231.1 58.8926 231.002 59 230.807 59H230.268ZM231.1 54.4004H232.793C233.555 54.4004 234.141 54.3008 234.551 54.1016C234.961 53.8984 235.166 53.4746 235.166 52.8301C235.166 52.3379 234.978 52.0039 234.603 51.8281C234.228 51.6484 233.719 51.5586 233.074 51.5586H231.1V54.4004ZM238.915 59C238.72 59 238.622 58.8926 238.622 58.6777V50.9199C238.622 50.7051 238.72 50.5977 238.915 50.5977H244.042C244.257 50.5977 244.365 50.6855 244.365 50.8613V51.2949C244.365 51.4707 244.257 51.5586 244.042 51.5586H239.747V54.1602H243.691C243.906 54.1602 244.013 54.248 244.013 54.4238V54.8574C244.013 55.0332 243.906 55.1211 243.691 55.1211H239.747V58.0391H244.218C244.433 58.0391 244.54 58.127 244.54 58.3027V58.7363C244.54 58.9121 244.433 59 244.218 59H238.915ZM246.52 58.3672C246.313 58.1797 246.259 58.0156 246.356 57.875L246.661 57.4355C246.767 57.2832 246.936 57.2949 247.171 57.4707C247.479 57.7012 247.8 57.8906 248.132 58.0391C248.468 58.1875 248.874 58.2617 249.351 58.2617C249.702 58.2617 249.999 58.209 250.241 58.1035C250.483 57.998 250.677 57.8477 250.821 57.6523C250.97 57.4531 251.044 57.2129 251.044 56.9316C251.044 56.7285 251.013 56.541 250.95 56.3691C250.892 56.1934 250.796 56.0469 250.663 55.9297C250.53 55.8125 250.392 55.7207 250.247 55.6543C250.009 55.5449 249.651 55.418 249.175 55.2734C248.702 55.1289 248.288 54.9727 247.933 54.8047C247.581 54.6367 247.3 54.4336 247.089 54.1953C246.882 53.957 246.743 53.7129 246.673 53.4629C246.606 53.209 246.573 52.9199 246.573 52.5957C246.573 52.0996 246.718 51.6719 247.007 51.3125C247.296 50.9531 247.649 50.7148 248.067 50.5977C248.489 50.4805 248.917 50.4219 249.351 50.4219C249.847 50.4219 250.278 50.4863 250.645 50.6152C251.013 50.7441 251.341 50.9121 251.63 51.1191C251.833 51.2637 251.88 51.416 251.77 51.5762L251.472 52.0039C251.382 52.1328 251.206 52.1055 250.944 51.9219C250.745 51.7812 250.501 51.6504 250.212 51.5293C249.927 51.4043 249.644 51.3418 249.362 51.3418C249.003 51.3418 248.704 51.3848 248.466 51.4707C248.227 51.5527 248.04 51.6934 247.903 51.8926C247.767 52.0918 247.698 52.3223 247.698 52.584C247.698 52.748 247.714 52.9004 247.745 53.041C247.776 53.1777 247.856 53.3184 247.985 53.4629C248.114 53.6074 248.27 53.7188 248.454 53.7969C248.7 53.9023 249.081 54.0273 249.597 54.1719C250.116 54.3125 250.569 54.4863 250.956 54.6934C251.315 54.8848 251.573 55.0859 251.729 55.2969C251.89 55.5039 252.013 55.7305 252.099 55.9766C252.188 56.2188 252.233 56.4922 252.233 56.7969C252.233 57.3516 252.091 57.8145 251.806 58.1855C251.52 58.5566 251.183 58.8145 250.792 58.959C250.401 59.1035 249.911 59.1758 249.321 59.1758C248.614 59.1758 248.028 59.0938 247.563 58.9297C247.099 58.7656 246.751 58.5781 246.52 58.3672ZM254.196 55.7949V50.9199C254.196 50.7051 254.293 50.5977 254.489 50.5977H255.028C255.223 50.5977 255.321 50.7051 255.321 50.9199V55.6191C255.321 56.7129 255.475 57.4277 255.784 57.7637C256.096 58.0957 256.604 58.2617 257.307 58.2617C258.01 58.2617 258.516 58.0957 258.825 57.7637C259.137 57.4277 259.293 56.7129 259.293 55.6191V50.9199C259.293 50.7051 259.391 50.5977 259.586 50.5977H260.125C260.321 50.5977 260.418 50.7051 260.418 50.9199V55.7949C260.418 57.0332 260.133 57.9062 259.563 58.4141C258.997 58.9219 258.245 59.1758 257.307 59.1758C256.37 59.1758 255.616 58.9219 255.045 58.4141C254.479 57.9062 254.196 57.0332 254.196 55.7949ZM263.184 59C262.988 59 262.891 58.8926 262.891 58.6777V50.9199C262.891 50.7051 262.988 50.5977 263.184 50.5977H263.723C263.918 50.5977 264.016 50.7051 264.016 50.9199V58.0391H267.9C268.115 58.0391 268.223 58.127 268.223 58.3027V58.7363C268.223 58.9121 268.115 59 267.9 59H263.184ZM268.158 51.6055C267.943 51.6055 267.835 51.5176 267.835 51.3418V50.8613C267.835 50.6855 267.943 50.5977 268.158 50.5977H274.357C274.572 50.5977 274.679 50.6855 274.679 50.8613V51.3418C274.679 51.5176 274.572 51.6055 274.357 51.6055H271.82V58.6777C271.82 58.8926 271.722 59 271.527 59H270.988C270.792 59 270.695 58.8926 270.695 58.6777V51.6055H268.158ZM276.343 58.3672C276.136 58.1797 276.081 58.0156 276.179 57.875L276.483 57.4355C276.589 57.2832 276.759 57.2949 276.993 57.4707C277.302 57.7012 277.622 57.8906 277.954 58.0391C278.29 58.1875 278.696 58.2617 279.173 58.2617C279.524 58.2617 279.821 58.209 280.064 58.1035C280.306 57.998 280.499 57.8477 280.644 57.6523C280.792 57.4531 280.866 57.2129 280.866 56.9316C280.866 56.7285 280.835 56.541 280.773 56.3691C280.714 56.1934 280.618 56.0469 280.485 55.9297C280.353 55.8125 280.214 55.7207 280.069 55.6543C279.831 55.5449 279.474 55.418 278.997 55.2734C278.524 55.1289 278.11 54.9727 277.755 54.8047C277.403 54.6367 277.122 54.4336 276.911 54.1953C276.704 53.957 276.565 53.7129 276.495 53.4629C276.429 53.209 276.396 52.9199 276.396 52.5957C276.396 52.0996 276.54 51.6719 276.829 51.3125C277.118 50.9531 277.472 50.7148 277.89 50.5977C278.312 50.4805 278.739 50.4219 279.173 50.4219C279.669 50.4219 280.101 50.4863 280.468 50.6152C280.835 50.7441 281.163 50.9121 281.452 51.1191C281.655 51.2637 281.702 51.416 281.593 51.5762L281.294 52.0039C281.204 52.1328 281.028 52.1055 280.767 51.9219C280.567 51.7812 280.323 51.6504 280.034 51.5293C279.749 51.4043 279.466 51.3418 279.185 51.3418C278.825 51.3418 278.526 51.3848 278.288 51.4707C278.05 51.5527 277.862 51.6934 277.726 51.8926C277.589 52.0918 277.521 52.3223 277.521 52.584C277.521 52.748 277.536 52.9004 277.567 53.041C277.599 53.1777 277.679 53.3184 277.808 53.4629C277.937 53.6074 278.093 53.7188 278.276 53.7969C278.523 53.9023 278.903 54.0273 279.419 54.1719C279.939 54.3125 280.392 54.4863 280.778 54.6934C281.138 54.8848 281.396 55.0859 281.552 55.2969C281.712 55.5039 281.835 55.7305 281.921 55.9766C282.011 56.2188 282.056 56.4922 282.056 56.7969C282.056 57.3516 281.913 57.8145 281.628 58.1855C281.343 58.5566 281.005 58.8145 280.614 58.959C280.224 59.1035 279.733 59.1758 279.144 59.1758C278.437 59.1758 277.851 59.0938 277.386 58.9297C276.921 58.7656 276.573 58.5781 276.343 58.3672Z" fill="#E8E8E8" fill-opacity="0.59"/>
</svg>
